<svg width="62" height="40" viewBox="0 0 62 40" fill="none" xmlns="http://www.w3.org/2000/svg">
<path d="M40.0871 17.4292C40.0871 27.0551 32.2838 34.8584 22.658 34.8584C13.0321 34.8584 5.22876 27.0551 5.22876 17.4292C5.22876 7.80332 13.0321 0 22.658 0C32.2838 0 40.0871 7.80332 40.0871 17.4292Z" fill="#FF52CF"/>
<path d="M14.6405 30.5011C14.6405 33.2926 12.3776 35.5556 9.58606 35.5556C6.79455 35.5556 4.53159 33.2926 4.53159 30.5011C4.53159 27.7096 6.79455 25.4466 9.58606 25.4466C12.3776 25.4466 14.6405 27.7096 14.6405 30.5011Z" fill="#FF52CF"/>
<path d="M5.22876 36.7756C5.22876 38.2195 4.05826 39.39 2.61438 39.39C1.1705 39.39 0 38.2195 0 36.7756C0 35.3317 1.1705 34.1612 2.61438 34.1612C4.05826 34.1612 5.22876 35.3317 5.22876 36.7756Z" fill="#FF52CF"/>
<path d="M21 17.4292C21 27.0551 28.8033 34.8584 38.4292 34.8584C48.0551 34.8584 55.8584 27.0551 55.8584 17.4292C55.8584 7.80332 48.0551 0 38.4292 0C28.8033 0 21 7.80332 21 17.4292Z" fill="#0975FD"/>
<path d="M46.4466 30.5011C46.4466 33.2926 48.7096 35.5556 51.5011 35.5556C54.2926 35.5556 56.5556 33.2926 56.5556 30.5011C56.5556 27.7096 54.2926 25.4466 51.5011 25.4466C48.7096 25.4466 46.4466 27.7096 46.4466 30.5011Z" fill="#0975FD"/>
<path d="M55.8584 36.7756C55.8584 38.2195 57.0289 39.39 58.4728 39.39C59.9167 39.39 61.0872 38.2195 61.0872 36.7756C61.0872 35.3317 59.9167 34.1612 58.4728 34.1612C57.0289 34.1612 55.8584 35.3317 55.8584 36.7756Z" fill="#0975FD"/>
<path fill-rule="evenodd" clip-rule="evenodd" d="M30.2226 9.48217C29.7825 9.74724 29.1771 10.2066 28.8774 10.5028C28.5774 10.7992 28.1381 11.3344 27.9008 11.6923C27.6634 12.0502 27.3637 12.793 27.2346 13.3428C27.1055 13.8927 27 14.7167 27 15.1739C27 15.6311 27.1034 16.4327 27.2298 16.9553C27.356 17.4778 27.8004 18.568 28.2169 19.3782C28.7144 20.3452 29.6975 21.5701 31.08 22.9453C32.2382 24.0971 33.5642 25.3013 34.0269 25.6212C34.4896 25.9412 35.0152 26.3442 35.1953 26.5169C35.375 26.6896 36.0475 27.0941 36.6893 27.4155C37.3313 27.7371 38.0057 28 38.1879 28C38.3701 28 39.2118 27.5589 40.0585 27.0198C40.9053 26.4806 41.652 25.9675 41.7181 25.8801C41.7842 25.7925 42.2169 25.46 42.6795 25.141C43.1422 24.8222 44.0736 24.0163 44.7492 23.3498C45.4248 22.6836 46.5093 21.3461 47.159 20.3782C47.8086 19.4101 48.491 18.1904 48.6753 17.6678C48.8597 17.1453 49.0058 16.0553 48.9998 15.2456C48.9941 14.4361 48.8417 13.2804 48.6616 12.6773C48.4814 12.0742 48.006 11.227 47.6048 10.7945C47.2039 10.3617 46.4994 9.78097 46.0397 9.50402C45.3835 9.10878 44.8146 9 43.4006 9C41.9921 9 41.4167 9.10926 40.7695 9.49927C40.3138 9.77384 39.6353 10.3218 39.2615 10.717C38.888 11.1123 38.4765 11.6089 38.3475 11.8203C38.1376 12.1645 38.0687 12.1521 37.6923 11.7035C37.461 11.4277 37.0553 10.9329 36.7909 10.6042C36.5266 10.2755 35.9317 9.78002 35.469 9.50331C34.8105 9.10926 34.2363 9 32.8252 9C31.4369 9 30.8386 9.11092 30.2226 9.48217Z" fill="white"/>
</svg>
